<?xml version="1.0" encoding="utf-8" ?><svg xmlns="http://www.w3.org/2000/svg" xmlns:xlink="http://www.w3.org/1999/xlink" width="1024" height="1024" viewBox="0 0 1024 1024"><defs><clipPath id="rc"><rect width="1024" height="1024" rx="160" ry="160"/></clipPath></defs><g clip-path="url(#rc)"><path fill="#13161D" d="M0 0L177.055 0L849.407 0L1024 0L1024 177.681L1024 844.327L1024 1024L844.781 1024L178.071 1024L0 1024L0 848.428L0 177.609L0 0Z"/><path fill="#5978F1" d="M497.92 231.29C505.871 230.486 520.2 230.689 528.201 231.326C608.689 237.734 680.134 277.333 736.989 333.306C753.244 349.309 767.473 366.453 782.248 383.695C774.917 393.998 760.702 409.694 752.152 418.976C708.965 465.864 656.722 504.385 595.522 523.873C572.737 531.129 548.995 536.63 524.875 537.589C508.234 538.599 491.532 537.826 475.056 535.284C393.62 522.732 324.102 476.56 269.381 416.446C260.379 406.558 250.086 394.604 242.195 383.813C245.05 379.818 248.35 376.015 251.468 372.219C314.954 294.929 395.873 239.945 497.92 231.29Z"/><path fill="#13161D" d="M504.073 267.598C568.719 263.143 624.704 312.01 629.028 376.664C633.351 441.319 584.371 497.205 519.707 501.397C455.23 505.577 399.54 456.768 395.228 392.299C390.917 327.83 439.613 272.041 504.073 267.598Z"/><path fill="#E9E8E4" d="M494.205 312.2C496.385 312.107 495.581 311.73 496.909 312.851C497.629 315.528 497.227 319.202 497.184 322.178C465.178 323.255 505.353 379.4 460.943 383.999C465.717 385.298 470.39 385.775 474.624 388.66C485.409 396.008 483.623 411.816 483.776 422.744C483.946 434.985 482 446.398 497.141 447.076L497.093 457.556C492.936 457.396 490.46 457.157 486.34 456.56C453.049 446.867 476.66 407.547 463.585 394.306C459.242 389.908 453.686 390.346 447.995 390.413L447.987 378.964C456.039 379.101 465.617 378.254 466.996 368.293C470.327 344.231 458.217 315.175 494.205 312.2Z"/><path fill="#E9E8E4" d="M527.507 311.394C583.342 312.326 534.898 377.376 573.243 379.022C574.223 379.068 575.203 379.095 576.183 379.103L576.227 389.835C555.294 390.185 556.947 400.309 557.238 418.233C557.619 441.711 555.425 457.018 527.437 456.608L527.164 446.519C531.202 446.488 534.317 446.344 537.279 443.168C549.601 429.956 526.855 393.787 560.388 384.728C560.459 384.216 560.459 384.064 560.137 383.671C553.977 382.438 549.147 380.693 545.38 375.311C539.425 366.481 541.156 355.003 540.999 344.984C540.869 336.73 542.456 324.986 532.466 321.916C531.034 321.476 529 321.921 527.509 321.981L527.507 311.394Z"/><path fill="#67676A" d="M560.137 383.671C561.859 383.46 563.441 384.163 560.388 384.728C560.459 384.216 560.459 384.064 560.137 383.671Z"/><path fill="#13161D" d="M639.887 299.953C642.851 301.066 651.999 306.822 655.104 308.839C687.387 329.811 712.913 355.251 738.342 383.679C721.136 404.66 707.016 418.633 686.028 436.365C672.614 448.011 655.796 458.564 640.647 467.848C648.236 452.911 654.538 437.959 658.473 421.613C661.864 407.598 663.371 393.194 662.951 378.781C662.055 354.142 652.791 321.099 639.887 299.953Z"/><path fill="#13161D" d="M382.949 301.117C382.818 301.731 378.095 310.586 377.384 312.091C353.322 363.016 356.382 418.709 383.053 468.191C366.707 457.228 354.94 449.765 339.248 437.105C320.699 422.677 300.827 401.988 285.684 384.221C296.558 369.956 311.934 355.733 324.991 343.463C342.531 326.98 362.577 313.832 382.949 301.117Z"/><path fill="#E9E8E4" d="M416.804 610.691C434.592 607.62 462.346 615.765 475.26 628.851C490.655 644.451 489.227 660.889 489.178 681.023L489.088 712.573L399.98 712.539C400.011 728.215 395.296 751.161 418.085 752.559C434.824 753.586 447.754 752.095 449.093 732.189L474.372 732.07C478.345 732.055 484.918 731.842 488.534 732.332C489.371 733.676 489.114 735.238 489.095 736.904C489.107 805.19 368.833 808.546 359.829 742.984C358.515 733.416 359.478 717.99 359.488 707.988L359.514 679.498C359.529 671.329 359.241 661.887 360.817 653.988C362.284 646.515 365.483 639.491 370.159 633.479C381.166 619.43 399.619 612.8 416.804 610.691Z"/><path fill="#13161D" d="M417.167 648.648C421.737 648.112 427.164 648.475 431.754 648.882C450.179 650.515 447.503 669.027 447.29 682.998L431.25 683.007L399.974 683.041C400.04 666.916 396.857 651.753 417.167 648.648Z"/><path fill="#E9E8E4" d="M635.684 610.681L695.766 610.535C692.634 614.661 687.283 621.256 686.457 626.176C685.125 634.106 685.697 645 685.763 653.235C685.885 666.805 685.939 680.375 685.924 693.946L685.839 723.841C685.82 729.516 685.572 735.221 686.123 740.898C687.31 753.137 697.593 757.031 708.53 755.199C722.336 752.887 727.507 739.023 729.136 726.781C729.999 720.289 729.659 712.902 729.635 706.261L729.51 674.235L729.567 646.923C729.636 626.276 730.671 628.03 719.514 610.73L780.208 610.715C768.957 627.273 771.383 629.642 771.405 649.133L771.441 692.176L771.429 745.148C771.428 767.368 769.199 769.339 779.975 789.158C763.587 789.208 745.456 789.655 729.234 789.296C728.596 785.895 729.038 781.052 728.91 777.457C728.538 767.004 729.66 754.542 728.604 744.343C726.328 758.751 721.787 775.13 709.354 783.817C686.535 799.76 648.467 785.566 645.481 756.533C644.097 743.079 644.609 730.191 644.67 716.877C644.806 695.523 644.814 674.168 644.693 652.813C644.66 634.28 647.259 626.26 635.684 610.681Z"/><path fill="#67676A" d="M728.604 744.343C728.619 743.722 728.624 743.106 729.204 742.777C729.293 742.804 729.376 742.821 729.373 742.932C729.022 753.518 729.964 780.236 729.234 789.296C728.596 785.895 729.038 781.052 728.91 777.457C728.538 767.004 729.66 754.542 728.604 744.343Z"/><path fill="#E9E8E4" d="M577.044 610.822C595.817 610.359 616.013 610.645 634.945 610.551C625.921 622.364 625.294 627.942 622.423 642.154L601.193 733.91C598.398 746.092 593.965 761.405 592.735 773.777C592.298 778.171 596.786 785.237 599.11 789.048L525.808 789.082C530.32 779.849 532.946 774.565 530.619 763.91C528.504 754.223 526.089 744.632 523.738 734.999L511.039 683.025L502.393 647.35C498.061 629.335 498.176 625.855 487.934 610.604C507.629 610.133 529.889 610.606 549.759 610.632C537.696 624.24 541.636 634.035 544.836 650.257L550.56 679.131C554.431 698.857 558.007 722.453 562.595 741.575C568.183 715.051 573.556 688.482 578.714 661.872C579.754 656.466 580.756 650.249 581.926 645.007C585.31 629.837 585.469 624.02 577.044 610.822Z"/><path fill="#E9E8E4" d="M297.729 643.573C298.35 641.291 299.038 639.027 299.791 636.785C307.461 614.324 327.309 603.103 350.167 610.944C350.704 615.285 350.394 673.198 350.112 673.75C349.317 672.764 349.487 673.192 349.299 671.959C345.337 658.111 333.994 654.249 320.877 654.309C303.777 654.179 293.716 670.063 293.615 685.713C293.392 707.193 293.782 728.963 293.505 750.43C293.266 769.033 293.02 773.142 302.271 789.141C284.08 789.755 262.158 789.284 243.787 789.164C254.576 771.393 252.051 765.027 252.078 744.562L252.082 691.949L252.059 650.985C252.046 629.719 254.399 628.447 241.829 610.725C258.798 610.293 277.834 610.682 294.925 610.73L294.924 619.49C295.489 625.86 294.902 635.164 295.015 641.875C296.213 642.798 296.418 643 297.729 643.573Z"/><path fill="#67676A" d="M294.924 619.49C295.489 625.86 294.902 635.164 295.015 641.875C296.213 642.798 296.418 643 297.729 643.573C297.181 647.403 296.322 651.219 295.811 655.086C295.77 655.76 295.683 660.238 294.867 660.417C294.127 659.884 294.529 623.103 294.924 619.49Z"/><path fill="#030302" d="M295.015 641.875C296.213 642.798 296.418 643 297.729 643.573C297.181 647.403 296.322 651.219 295.811 655.086C294.345 652.64 295.008 645.226 295.015 641.875Z"/><path fill="#B4B2B9" d="M350.167 610.944C350.704 615.285 350.394 673.198 350.112 673.75C349.317 672.764 349.487 673.192 349.299 671.959C351.077 668.68 349.018 620.243 350.167 610.944Z"/><path fill="#5978F1" d="M245.209 563.003L779.259 563.109L779.171 572.536L778.951 572.968C777.186 573.887 761.951 573.461 758.594 573.459L720.097 573.45L602.203 573.441L245.217 573.438C245.086 570.067 245.182 566.4 245.209 563.003Z"/></g></svg>